name rise34.3697peak60.0498fall86.3158.mot
datacolumns 19
datarows 18
range 18.37993400000000 18.40826500000000
endheader
time	ground_force1_vx	ground_force1_vy	ground_force1_vz	ground_force1_px	ground_force1_py	ground_force1_pz	ground_force2_vx	ground_force2_vy	ground_force2_vz	ground_force2_px	ground_force2_py	ground_force2_pz	ground_torque1_x	ground_torque1_y	ground_torque1_z	ground_torque2_x	ground_torque2_y	ground_torque2_z	
18.37993400000000	6.72119300000000	704.68815199999995	49.56298700000000	0.28442600000000	0.00000000000000	0.13421800000000	0.00000000000000	0.00000000000000	0.00000000000000	0.00000000000000	0.00000000000000	0.00000000000000	0.00000000000000	25.37627200000000	0.00000000000000	0.00000000000000	0.00000000000000	0.00000000000000	
18.38159700000000	6.28394800000000	705.00346600000000	49.53269200000000	0.28371200000000	0.00000000000000	0.13417000000000	0.00000000000000	0.00000000000000	0.00000000000000	0.00000000000000	0.00000000000000	0.00000000000000	0.00000000000000	25.42362700000000	0.00000000000000	0.00000000000000	0.00000000000000	0.00000000000000	
18.38326600000000	5.83622300000000	705.33423600000003	49.50296400000000	0.28298700000000	0.00000000000000	0.13412100000000	0.00000000000000	0.00000000000000	0.00000000000000	0.00000000000000	0.00000000000000	0.00000000000000	0.00000000000000	25.47469400000000	0.00000000000000	0.00000000000000	0.00000000000000	0.00000000000000	
18.38493200000000	5.37802600000000	705.68103799999994	49.47372500000000	0.28225000000000	0.00000000000000	0.13407100000000	0.00000000000000	0.00000000000000	0.00000000000000	0.00000000000000	0.00000000000000	0.00000000000000	0.00000000000000	25.52936900000000	0.00000000000000	0.00000000000000	0.00000000000000	0.00000000000000	
18.38659700000000	4.90938700000000	706.04458000000000	49.44492100000000	0.28150100000000	0.00000000000000	0.13402200000000	0.00000000000000	0.00000000000000	0.00000000000000	0.00000000000000	0.00000000000000	0.00000000000000	0.00000000000000	25.58755200000000	0.00000000000000	0.00000000000000	0.00000000000000	0.00000000000000	
18.38826300000000	4.43036200000000	706.42570100000000	49.41651700000000	0.28073900000000	0.00000000000000	0.13397200000000	0.00000000000000	0.00000000000000	0.00000000000000	0.00000000000000	0.00000000000000	0.00000000000000	0.00000000000000	25.64915500000000	0.00000000000000	0.00000000000000	0.00000000000000	0.00000000000000	
18.38993100000000	3.94102700000000	706.82536200000004	49.38850400000000	0.27996300000000	0.00000000000000	0.13392200000000	0.00000000000000	0.00000000000000	0.00000000000000	0.00000000000000	0.00000000000000	0.00000000000000	0.00000000000000	25.71409000000000	0.00000000000000	0.00000000000000	0.00000000000000	0.00000000000000	
18.39160000000000	3.44147900000000	707.24464599999999	49.36089200000000	0.27917200000000	0.00000000000000	0.13387200000000	0.00000000000000	0.00000000000000	0.00000000000000	0.00000000000000	0.00000000000000	0.00000000000000	0.00000000000000	25.78228200000000	0.00000000000000	0.00000000000000	0.00000000000000	0.00000000000000	
18.39326300000000	2.93183900000000	707.68474800000001	49.33371500000000	0.27836700000000	0.00000000000000	0.13382100000000	0.00000000000000	0.00000000000000	0.00000000000000	0.00000000000000	0.00000000000000	0.00000000000000	0.00000000000000	25.85365800000000	0.00000000000000	0.00000000000000	0.00000000000000	0.00000000000000	
18.39493400000000	2.41224600000000	708.14697100000001	49.30702900000000	0.27754500000000	0.00000000000000	0.13377000000000	0.00000000000000	0.00000000000000	0.00000000000000	0.00000000000000	0.00000000000000	0.00000000000000	0.00000000000000	25.92815300000000	0.00000000000000	0.00000000000000	0.00000000000000	0.00000000000000	
18.39660100000000	1.88286100000000	708.63271699999996	49.28091000000000	0.27670800000000	0.00000000000000	0.13371900000000	0.00000000000000	0.00000000000000	0.00000000000000	0.00000000000000	0.00000000000000	0.00000000000000	0.00000000000000	26.00570800000000	0.00000000000000	0.00000000000000	0.00000000000000	0.00000000000000	
18.39826600000000	1.34386600000000	709.14348099999995	49.25545700000000	0.27585400000000	0.00000000000000	0.13366700000000	0.00000000000000	0.00000000000000	0.00000000000000	0.00000000000000	0.00000000000000	0.00000000000000	0.00000000000000	26.08627000000000	0.00000000000000	0.00000000000000	0.00000000000000	0.00000000000000	
18.39993100000000	0.79545800000000	709.68083999999999	49.23078900000000	0.27498300000000	0.00000000000000	0.13361600000000	0.00000000000000	0.00000000000000	0.00000000000000	0.00000000000000	0.00000000000000	0.00000000000000	0.00000000000000	26.16979200000000	0.00000000000000	0.00000000000000	0.00000000000000	0.00000000000000	
18.40159200000000	0.23785800000000	710.24644499999999	49.20704500000000	0.27409500000000	0.00000000000000	0.13356400000000	0.00000000000000	0.00000000000000	0.00000000000000	0.00000000000000	0.00000000000000	0.00000000000000	0.00000000000000	26.25623300000000	0.00000000000000	0.00000000000000	0.00000000000000	0.00000000000000	
18.40326800000000	-0.32869900000000	710.84200999999996	49.18438300000000	0.27318900000000	0.00000000000000	0.13351200000000	0.00000000000000	0.00000000000000	0.00000000000000	0.00000000000000	0.00000000000000	0.00000000000000	0.00000000000000	26.34555500000000	0.00000000000000	0.00000000000000	0.00000000000000	0.00000000000000	
18.40493100000000	-0.90395800000000	711.46930499999996	49.16298300000000	0.27226500000000	0.00000000000000	0.13346000000000	0.00000000000000	0.00000000000000	0.00000000000000	0.00000000000000	0.00000000000000	0.00000000000000	0.00000000000000	26.43772600000000	0.00000000000000	0.00000000000000	0.00000000000000	0.00000000000000	
18.40659900000000	-1.48764700000000	712.13014099999998	49.14304200000000	0.27132400000000	0.00000000000000	0.13340700000000	0.00000000000000	0.00000000000000	0.00000000000000	0.00000000000000	0.00000000000000	0.00000000000000	0.00000000000000	26.53271900000000	0.00000000000000	0.00000000000000	0.00000000000000	0.00000000000000	
18.40826500000000	-2.07947900000000	712.82635900000002	49.12477300000000	0.27036600000000	0.00000000000000	0.13335500000000	0.00000000000000	0.00000000000000	0.00000000000000	0.00000000000000	0.00000000000000	0.00000000000000	0.00000000000000	26.63051200000000	0.00000000000000	0.00000000000000	0.00000000000000	0.00000000000000	
